<svg class="logo" width="270" height="80" xmlns="http://www.w3.org/2000/svg" viewBox="0 0 663.6 113.1">
			<g>
				<path class="st0" d="M663.6 92c-.5-20-159-31.3-353.9-25.1-129.3 4-242.1 14.7-303.3 27.3 181.7-23.7 622.9-27.7 614.4 5.4-1.8 5.6-12.9 8.3-28.9 13.5 44.1-7.4 71.9-13 71.7-21.1z"></path>
				<g>
					<path class="st0" d="M157.5 110.4l5.6-15.3-17.4 15.3h-6.5l-6.1-15.3-5.6 15.3h-7.7l7.3-20.1h12.4l5.3 13.4L160 90.3h12.5l-7.3 20.1h-7.7zM211.4 90.3l-1.7 4.6H188l-1.3 3.4H207l-1.5 4h-20.3l-1.3 3.6h21.7l-1.7 4.6H174l7.3-20.1h30.1zM243.1 90.3c4.8 0 7.9.6 9.1 1.8 1.2 1.2 1.2 3.6-.1 7.2l-.4 1.1-.2.6-.2.5c-.3.9-.6 1.6-.8 2-.2.4-.6 1.2-1.3 2.3-.7 1.2-2 2.2-3.9 3.1-1.9.9-4 1.3-6.4 1.3h-26.6l7.3-20.1h23.5zm.3 10.1l.1-.2c.7-2 .9-3.3.6-4-.3-.7-1.8-1-4.4-1h-13.9l-3.7 10.2h13.7c2.5 0 4.2-.4 5.1-1.1 1-.6 1.8-1.9 2.5-3.9zM256.4 110.4l7.3-20.1h8.2l-7.3 20.1h-8.2zM280.4 110.4h-9l22.3-20.1h11l7.3 20.1h-9l-1.2-3.7h-17.4l-4 3.7zm8.4-7.8h11.7l-2.7-8.5-9 8.5zM369.4 99.1l-1.5 4.2c-.9 2.5-2.1 4.3-3.7 5.5-1.6 1.2-4 1.8-7.3 1.8h-13.3c-3.1 0-5.5-.2-7.2-.5-1.7-.3-2.9-1-3.5-2.1-.7-1.1-.6-2.7.2-4.9l.8-2.5c1.4-3.9 3.1-6.6 4.9-8.2 1.8-1.5 5.1-2.3 9.9-2.3l6.1-.1h2.3l5.4.1c3.5 0 5.9.5 7.2 1.4 1.3.9 1.4 2.7.5 5.3l-.1.4h-8c.2-.5.2-.9.2-1.2-.1-.3-.3-.6-.8-.7-.5-.1-.9-.2-1.4-.3h-11.4c-1.9 0-3.3.4-4 1.1-.8.7-1.5 1.9-2.1 3.6l-.7 1.9c-.5 1.4-.6 2.4-.4 3.1.3.7.8 1.1 1.8 1.1.9.1 1.6.1 2.1.2h9.2c1.4 0 2.5-.2 3.4-.5.9-.3 1.5-1 1.9-1.9l.2-.6h-10.3l1.4-3.8h18.2zM406 90.3c3.2 0 5.3.5 6.4 1.4 1 .9 1.1 2.6.3 5-.3.9-.7 1.7-1 2.3-.4.6-.8 1.2-1.4 1.7-.6.5-1.2.8-1.8 1.1-.6.2-1.9.6-3.7 1 1.8.2 3.1.5 3.7 1.1.7.5.8 1.5.3 2.8l-1.4 3.9H399l.7-1.9c.4-1 .5-1.8.5-2.4 0-.6-1-.9-2.9-.9h-13.6l-1.9 5.2h-8.2l7.3-20.1H406zm-7.1 10.1c1.8 0 3.1-.2 3.6-.5.6-.3 1.1-1.1 1.5-2.3.2-.7.3-1.2.3-1.5-.1-.3-.3-.5-.8-.7-.5-.1-.9-.2-1.3-.2h-14.7l-1.9 5.2h13.3zM441 90.1h6.5c4.8 0 7.8.6 9.1 1.8 1.3 1.2 1.3 3.6 0 7.1l-.4 1c-1.5 4.2-3.2 7-5.1 8.4-1.9 1.4-5.7 2.1-11.3 2.1l-6.2.1H431l-5.5-.2c-3.1 0-5.3-.5-6.6-1.6-1.3-1.1-1.5-2.8-.7-5.1l1.3-3.7c1.5-4.1 3.2-6.8 5-8 1.8-1.3 5.4-1.9 10.6-1.9h5.9zm-10.1 15.5l4.4.1h4.2c2.3 0 4-.2 5.2-.6 1.1-.4 2-1.3 2.5-2.8l1.1-2.7c.3-.9.6-1.7.6-2.4.1-.7 0-1.1-.4-1.5-.3-.3-.9-.5-1.8-.6-.9-.1-1.8-.2-2.8-.2h-8.1c-1.8 0-3.3.1-4.4.4-1.1.3-1.8.9-2.3 1.8-.5.9-.8 1.7-1.1 2.3l-.2.5-.3.8c-.7 1.9-.8 3.1-.5 3.8.3.8 1.7 1.1 3.9 1.1zM498.5 101.8l-.5 1.2c-1.1 3.1-3 5.2-5.5 6.2s-6.1 1.5-10.6 1.5h-6.7c-3.5 0-6.2-.1-8-.4-1.8-.3-3-1-3.8-2.1-.7-1.1-.7-2.9.2-5.4l4.5-12.3h8.2l-3.8 10.5c-.7 2-.9 3.3-.5 3.9.4.6 1.9.9 4.5.9h7c2.2 0 3.7-.3 4.6-.8.8-.5 1.5-1.6 2.1-3.2l.3-.8 3.9-10.7h8.2l-4.1 11.5zM533.3 90.3c4 0 6.7.5 7.9 1.5 1.2 1 1.3 3 .2 5.9-1 2.8-2.4 4.8-4 6-1.6 1.2-4.4 1.7-8.3 1.7H514.3l-1.8 5h-8.2l7.3-20.1h21.7zm-.2 7.6c.4-1.1.4-1.9-.2-2.2-.5-.4-1.6-.5-3.2-.5H518l-1.9 5.3h11.8c1.6 0 2.7-.2 3.5-.5.7-.3 1.3-1 1.7-2.1z"></path>
				</g>
				<g>
					<path class="st1" d="M0 67.8h73.5c16.3 0 26-4.2 29-12.6l4.2-11.6c2.3-5.3-1.7-8.5-11.8-9.7 10.7-.9 17.1-4.4 19.2-10.5l3.9-10.7C121 4.2 114.4 0 98.1 0h-81c6.4 2 4.5 8.4 4.5 8.4L0 67.8zM49.3 17h29.2c4.8 0 6.7 1.3 5.7 3.9l-.7 2c-.8 2.1-3.5 3.2-8.3 3.2H46l3.3-9.1zm-8.9 24.6h29.2c4.8 0 6.7 1.3 5.7 3.8l-.5 1.6c-.9 2.5-4 3.7-9.2 3.7H37.1l3.3-9.1zM127.4 64.6H171c14.1.1 22.5-3.5 25.2-10.9l18-49.4h-27.3l-15.1 41.4c-.9 2.5-3.8 3.7-8.6 3.7h-18.9c-4.1 0-5.7-1.3-4.8-3.9l15-41.2h-27.4L109 54c-2.5 7.1 3.6 10.6 18.4 10.6zM274.7 49.5h-43.9l16.4-45.1h-27.4l-21.9 60.2h36c11.7-.5 23.7-1 35.9-1.4l4.9-13.7zM347.2 61.4l4.4-12h-43.9l16.4-45.1h-27.4L275.3 63c14.5-.5 29.2-.8 44.1-1.2 9.4-.1 18.6-.3 27.8-.4zM435.2 61.3c3.7-1.9 6.2-4.5 7.5-7.9l13.8-37.8c2.7-7.5-3.1-11.3-17.6-11.3h-69c2.8 2.5 1.8 5.2 1.8 5.2s-14.6 40-18.9 51.8c28.6-.3 56.2-.3 82.4 0zm-39.8-41.8h26c4.2 0 5.9 1.2 5.1 3.5l-8.4 23.1c-.8 2.2-3.5 3.3-8.2 3.3h-25.4l10.9-29.9zM523.9 62.9c5.9-1.7 9.7-4.8 11.3-9.2l14-38.4c2.5-7.3-3.3-11-17.6-11h-43.8c-14.5 0-23 3.6-25.7 10.9L448 54.1c-1.2 3.2-.5 5.7 2 7.5 25.3.4 61.8 1.1 73.9 1.3zm-13.1-17.2c-.9 2.5-3.8 3.7-8.6 3.7h-18.9c-4.1 0-5.7-1.3-4.8-3.9l8.2-22.5c.9-2.4 3.4-3.6 7.6-3.6h18.4c5.1 0 7.2 1.1 6.4 3.4l-8.3 22.9zM558.5 64.6h72.8c-6.5-2.3-4.6-7.9-4.6-7.9l10.6-29.1h-46.1l-5 13.7H605l-3 8.2h-25.5c-4.7 0-6.6-1.1-5.8-3.3l8.4-23.1c.8-2.3 3.4-3.5 7.8-3.5h53.4l5.5-15.1h-65.5c-14.5 0-23.1 3.8-25.8 11.3l-13.8 37.8c-2.6 7.3 3.3 11 17.8 11z"></path>
				</g>
			</g>
		</svg>