<svg version="1.1" id="Layer_1" xmlns:x="ns_extend;" xmlns:i="ns_ai;" xmlns:graph="ns_graphs;" xmlns="http://www.w3.org/2000/svg" xmlns:xlink="http://www.w3.org/1999/xlink" x="0px" y="0px" viewBox="0 0 99.4 59.1" style="enable-background:new 0 0 99.4 59.1;" xml:space="preserve">
 <style type="text/css">
  .st0{fill:#0070F6;}
	.st1{fill-rule:evenodd;clip-rule:evenodd;fill:#F5C946;}
	.st2{fill-rule:evenodd;clip-rule:evenodd;fill:#0070F6;}
 </style>
 <metadata>
  <sfw xmlns="ns_sfw;">
   <slices>
   </slices>
   <sliceSourceBounds bottomLeftOrigin="true" height="59.1" width="99.4" x="5.8" y="42.8">
   </sliceSourceBounds>
  </sfw>
 </metadata>
 <g>
  <g>
   <path class="st0" d="M24.6,19.2c-0.2,0-0.4-0.1-0.6-0.1c-1.9,0-3.4,1.2-3.8,3.6v-3.3c0,0,0-0.1,0-0.1c0,0,0-0.1-0.1-0.1
			c0,0-0.1,0-0.1-0.1c0,0-0.1,0-0.1,0h-3.2c0,0-0.1,0-0.1,0c0,0-0.1,0-0.1,0.1c0,0,0,0.1-0.1,0.1c0,0,0,0.1,0,0.1v15.9
			c0,0,0,0.1,0,0.1c0,0,0,0.1,0.1,0.1c0,0,0.1,0,0.1,0.1c0,0,0.1,0,0.1,0h3.2c0,0,0.1,0,0.1,0c0,0,0.1,0,0.1-0.1c0,0,0-0.1,0.1-0.1
			c0,0,0-0.1,0-0.1v-6.8c0-3.9,1.2-5.7,3.9-5.7h0.5c0.1,0,0.1,0,0.2-0.1c0.1,0,0.1-0.1,0.1-0.2v-3.1C24.9,19.3,24.8,19.2,24.6,19.2z
			 M33.2,18.7c-4.5,0-7.2,3.3-7.2,8.7c0,5.5,2.7,8.6,7.4,8.6c3.7,0,5.9-1.9,6.4-5.1c0-0.1-0.1-0.2-0.2-0.2h-3.2c0,0-0.1,0-0.1,0
			c0,0-0.1,0.1-0.1,0.1c-0.4,1.3-1.2,1.9-2.8,1.9c-2.4,0-3.7-1.6-3.8-4.2h10.1c0,0,0,0,0.1,0c0,0,0,0,0.1,0c0,0,0,0,0-0.1
			c0,0,0,0,0-0.1c0.1-0.7,0.1-1.5,0.1-2.2C40.1,21.8,37.8,18.7,33.2,18.7z M29.6,25.8c0.1-2.7,1.4-4.1,3.6-4.1
			c2.1,0,3.2,1.3,3.2,4.1H29.6z M56.7,13h-3.4c0,0,0,0-0.1,0c0,0,0,0-0.1,0c0,0,0,0,0,0.1c0,0,0,0,0,0.1v8.4
			c-0.4-0.9-1.1-1.7-1.9-2.2s-1.8-0.8-2.8-0.7c-4.1,0-6.7,3.5-6.7,8.7c0,5.2,2.7,8.7,6.7,8.7c1,0.1,2-0.2,2.8-0.7
			c0.8-0.5,1.5-1.3,1.9-2.2v2.3c0,0,0,0,0,0.1c0,0,0,0,0,0.1c0,0,0,0,0.1,0c0,0,0,0,0.1,0h3.4c0,0,0.1,0,0.1,0c0,0,0-0.1,0-0.1V13.2
			c0,0,0,0,0-0.1c0,0,0,0,0-0.1S56.7,13,56.7,13C56.7,13,56.7,13,56.7,13z M49.2,32.8c-2.5,0-3.9-2-3.9-5.4s1.4-5.3,3.9-5.3
			c2.5,0,3.9,2,3.9,5.3S51.7,32.8,49.2,32.8z M13.8,30h-3.2c0,0-0.1,0-0.1,0c0,0-0.1,0-0.1,0.1c0,0,0,0.1-0.1,0.1c0,0,0,0.1,0,0.1
			c-0.3,1.7-1.2,2.6-2.9,2.6c-2.4,0-3.6-1.9-3.6-5.4C3.8,24,5.1,22,7.4,22c1.9,0,2.8,0.9,3,2.8c0,0.1,0,0.1,0.1,0.2
			c0,0,0.1,0.1,0.2,0.1h3.2c0,0,0.1,0,0.1,0c0,0,0.1,0,0.1-0.1c0,0,0-0.1,0.1-0.1c0,0,0-0.1,0-0.1c-0.1-3.8-2.6-6-6.7-6
			c-4.5,0-7.3,3.4-7.3,8.7c0,5.4,2.7,8.7,7.3,8.7c4,0,6.3-2.1,6.8-5.8c0-0.1,0-0.2-0.1-0.2C14,30,13.9,30,13.8,30z M63.6,19.1h-3.2
			c0,0-0.1,0-0.1,0c0,0-0.1,0-0.1,0.1c0,0,0,0.1-0.1,0.1c0,0,0,0.1,0,0.1v15.9c0,0,0,0.1,0,0.1c0,0,0,0.1,0.1,0.1c0,0,0.1,0,0.1,0.1
			c0,0,0.1,0,0.1,0h3.2c0,0,0.1,0,0.1,0c0,0,0.1,0,0.1-0.1c0,0,0-0.1,0.1-0.1c0,0,0-0.1,0-0.1V19.4C63.9,19.3,63.7,19.1,63.6,19.1z
			 M62,13c-0.3,0-0.6,0-0.9,0.1c-0.3,0.1-0.5,0.3-0.7,0.5c-0.2,0.2-0.4,0.4-0.5,0.7c-0.1,0.3-0.2,0.6-0.1,0.9c0,0.3,0,0.6,0.1,0.9
			s0.3,0.5,0.5,0.7c0.2,0.2,0.5,0.4,0.7,0.5c0.3,0.1,0.6,0.2,0.9,0.1c0.6,0,1.1-0.2,1.5-0.6c0.4-0.4,0.6-1,0.6-1.6
			c0-0.6-0.2-1.1-0.6-1.6C63.2,13.2,62.6,13,62,13z M74.6,19.1h-3.7v-5.9c0,0,0-0.1,0-0.1c0,0,0-0.1-0.1-0.1c0,0-0.1,0-0.1-0.1
			c0,0-0.1,0-0.1,0h-3.3c0,0,0,0-0.1,0c0,0,0,0-0.1,0s0,0,0,0.1c0,0,0,0,0,0.1v17.9c0,3.3,1.7,5.1,4.7,5.1c0.8,0,1.6-0.1,2.4-0.2
			c0.1,0,0.1,0,0.2-0.1s0.1-0.1,0.1-0.2V33c0,0,0-0.1,0-0.1c0,0,0-0.1-0.1-0.1c0,0-0.1,0-0.1-0.1c0,0-0.1,0-0.1,0h-1.3
			c-1.3,0-2-0.8-2-2.5V23h3.7c0,0,0.1,0,0.1,0c0,0,0.1,0,0.1-0.1c0,0,0-0.1,0.1-0.1c0,0,0-0.1,0-0.1v-3.3c0-0.1-0.1-0.1-0.1-0.2
			C74.7,19.2,74.7,19.2,74.6,19.1z">
   </path>
   <path class="st1" d="M80.7,17c-0.2,0.2-0.5,0.3-0.8,0.3c-0.3,0-0.6,0-0.8-0.2c-0.3-0.1-0.5-0.3-0.6-0.6c-0.2-0.2-0.2-0.5-0.2-0.8
			c0.1-4,0.4-10.6,1.4-12.6c1.5-2.9,5-4,7.9-2.6c2.9,1.5,4,5,2.6,7.8C89,10.5,83.8,14.6,80.7,17z">
   </path>
  </g>
  <path class="st2" d="M57.5,42.2h-3.1c0,0-0.1,0-0.1,0c0,0-0.1,0-0.1,0.1c0,0,0,0.1-0.1,0.1c0,0,0,0.1,0,0.1v2.2
		c-0.4-0.9-1.1-1.7-1.9-2.2c-0.8-0.5-1.8-0.8-2.8-0.7c-4.1,0-6.7,3.5-6.7,8.7c0,5.2,2.7,8.7,6.7,8.7c1,0.1,2-0.2,2.8-0.7
		c0.8-0.5,1.5-1.3,1.9-2.2v2.2c0,0,0,0.1,0,0.1c0,0,0,0.1,0.1,0.1c0,0,0.1,0,0.1,0.1c0,0,0.1,0,0.1,0h3.1c0,0,0.1,0,0.1,0
		c0,0,0.1,0,0.1-0.1c0,0,0-0.1,0.1-0.1c0,0,0-0.1,0-0.1V42.5c0-0.1,0-0.1-0.1-0.2S57.6,42.2,57.5,42.2z M92.5,41.7
		c-4.5,0-7.2,3.3-7.2,8.7c0,5.5,2.7,8.6,7.4,8.6c3.7,0,5.9-1.9,6.4-5.1c0-0.1-0.1-0.2-0.2-0.2h-3.2c0,0-0.1,0-0.1,0
		c0,0-0.1,0.1-0.1,0.1c-0.4,1.3-1.2,1.9-2.8,1.9c-2.4,0-3.7-1.6-3.8-4.2h10.1c0,0,0,0,0.1,0c0,0,0,0,0.1,0s0,0,0-0.1c0,0,0,0,0-0.1
		c0.1-0.7,0.1-1.5,0.1-2.2C99.4,44.9,97.1,41.7,92.5,41.7z M75.2,42.5c0.8-0.5,1.8-0.8,2.7-0.8c3.3,0,5.2,2.2,5.2,6.2v10.5
		c0,0,0,0.1,0,0.1c0,0,0,0.1-0.1,0.1c0,0-0.1,0-0.1,0.1c0,0-0.1,0-0.1,0h-3.2c0,0-0.1,0-0.1,0c0,0-0.1,0-0.1-0.1c0,0,0-0.1-0.1-0.1
		c0,0,0-0.1,0-0.1v-10c0-2.3-0.8-3.5-2.5-3.5c-2,0-2.9,1.5-2.9,4.1v9.3c0,0,0,0.1,0,0.1s0,0.1-0.1,0.1c0,0-0.1,0-0.1,0.1
		c0,0-0.1,0-0.1,0h-3.2c0,0-0.1,0-0.1,0c0,0-0.1,0-0.1-0.1c0,0,0-0.1-0.1-0.1c0,0,0-0.1,0-0.1v-10c0-2.3-0.8-3.5-2.5-3.5
		c-2,0-2.9,1.5-2.9,4.1v9.4c0,0,0,0.1,0,0.1c0,0,0,0.1-0.1,0.1c0,0-0.1,0-0.1,0.1c0,0-0.1,0-0.1,0h-3.2c0,0-0.1,0-0.1,0
		c0,0-0.1,0-0.1-0.1s0-0.1-0.1-0.1c0,0,0-0.1,0-0.1V42.5c0-0.2,0.1-0.3,0.3-0.3h3.2c0,0,0.1,0,0.1,0c0,0,0.1,0,0.1,0.1
		c0,0,0,0.1,0.1,0.1c0,0,0,0.1,0,0.1v2.1c0.7-1.8,2.2-2.8,4.2-2.8c2.2,0,3.7,1.1,4.3,3C73.8,43.8,74.4,43.1,75.2,42.5z M20.9,41.7
		c-4.5,0-7.2,3.3-7.2,8.7c0,5.5,2.7,8.6,7.4,8.6c3.7,0,5.9-1.9,6.4-5.1c0-0.1-0.1-0.2-0.2-0.2h-3.2c0,0-0.1,0-0.1,0
		c0,0-0.1,0.1-0.1,0.1c-0.4,1.3-1.2,1.9-2.8,1.9c-2.4,0-3.7-1.6-3.8-4.2h10.1c0,0,0,0,0.1,0c0,0,0,0,0.1,0s0,0,0-0.1c0,0,0,0,0-0.1
		c0.1-0.7,0.1-1.5,0.1-2.2C27.7,44.9,25.4,41.7,20.9,41.7z M34.5,48.3l3,1c2.3,0.8,3.7,2.3,3.7,4.7c0,3.1-2.3,5.1-6,5.1
		c-3.7,0-6.2-2.1-6.4-5.2c0,0,0-0.1,0-0.1c0,0,0-0.1,0.1-0.1c0,0,0.1-0.1,0.1-0.1c0,0,0.1,0,0.1,0h3.2c0,0,0.1,0,0.1,0
		c0,0,0.1,0,0.1,0.1c0,0,0,0.1,0.1,0.1c0,0,0,0.1,0,0.1c0.1,1.2,1.1,2.2,2.7,2.2c1.4,0,2.2-0.7,2.2-2c0-0.4-0.1-0.9-0.4-1.2
		c-0.3-0.3-0.7-0.6-1.1-0.7l-2.9-0.9c-2.5-0.8-3.8-2.4-3.8-4.7c0-2.9,2.4-4.7,5.9-4.7c3.5,0,5.8,1.8,5.9,4.8c0,0,0,0.1,0,0.1
		c0,0,0,0.1-0.1,0.1c0,0-0.1,0.1-0.1,0.1c0,0-0.1,0-0.1,0h-3.2c0,0-0.1,0-0.1,0c0,0-0.1,0-0.1-0.1c0,0,0-0.1-0.1-0.1
		c0,0,0-0.1,0-0.1c-0.1-1.3-0.9-2-2.3-2c-1.3,0-2.2,0.7-2.2,1.8C32.9,47.3,33.4,47.9,34.5,48.3z M8.7,49.3l-3-1
		c-1.1-0.4-1.6-1-1.6-1.9c0-1.1,0.9-1.8,2.2-1.8s2.2,0.7,2.3,2c0,0,0,0.1,0,0.1c0,0,0,0.1,0.1,0.1c0,0,0.1,0,0.1,0.1
		c0,0,0.1,0,0.1,0H12c0,0,0.1,0,0.1,0c0,0,0.1,0,0.1-0.1c0,0,0.1-0.1,0.1-0.1c0,0,0-0.1,0-0.1c-0.2-3-2.5-4.8-6-4.8
		c-3.4,0-5.9,1.8-5.9,4.7c0,2.4,1.3,4,3.8,4.7l2.9,0.9c0.4,0.1,0.8,0.3,1.1,0.7c0.3,0.3,0.4,0.8,0.4,1.2c0,1.2-0.8,2-2.2,2
		c-1.6,0-2.6-0.9-2.7-2.2c0,0,0-0.1,0-0.1c0,0,0-0.1-0.1-0.1c0,0-0.1,0-0.1-0.1c0,0-0.1,0-0.1,0H0.3c0,0-0.1,0-0.1,0
		c0,0-0.1,0-0.1,0.1c0,0,0,0.1-0.1,0.1c0,0,0,0.1,0,0.1c0.2,3.1,2.7,5.2,6.4,5.2c3.7,0,6-2,6-5.1C12.4,51.6,11,50.1,8.7,49.3z
		 M17.3,48.8c0.1-2.7,1.4-4.1,3.6-4.1c2.1,0,3.2,1.3,3.2,4.1H17.3z M92.5,44.7c-2.2,0-3.5,1.4-3.6,4.1h6.8
		C95.8,46,94.6,44.7,92.5,44.7z M46.3,50.4c0,3.4,1.4,5.4,3.9,5.4c2.5,0,3.9-2,3.9-5.4s-1.4-5.3-3.9-5.3
		C47.7,45.1,46.3,47,46.3,50.4z">
  </path>
 </g>
</svg>