<svg id="LendingTree_Logo" data-name="LendingTree Logo" xmlns="http://www.w3.org/2000/svg" xmlns:xlink="http://www.w3.org/1999/xlink" viewBox="0 0 452.76 165.35"><defs><style>.cls-1{fill:#101f30;}.cls-2{fill:url(#New_Gradient_Swatch_2);}</style><linearGradient id="New_Gradient_Swatch_2" x1="178.14" y1="78.96" x2="236.1" y2="21" gradientUnits="userSpaceOnUse"><stop offset="0.05" stop-color="#078181"/><stop offset="0.21" stop-color="#07997d"/><stop offset="0.41" stop-color="#08af7a"/><stop offset="0.6" stop-color="#08bc78"/><stop offset="0.77" stop-color="#08c177"/></linearGradient></defs><title>LT Logo - Gradient</title><g id="LendingTree"><path class="cls-1" d="M432,106.7c0-7.67-1.77-13.64-5.25-17.74s-8.76-6.23-15.56-6.23-12.23,2.16-16,6.41-5.62,10.44-5.62,18.48a25.87,25.87,0,0,0,3.05,13.08,19.21,19.21,0,0,0,8.23,7.83A25.71,25.71,0,0,0,412.29,131a31.42,31.42,0,0,0,8.82-1.13,24.19,24.19,0,0,0,7.21-3.52,2.29,2.29,0,0,0,1-1.82,3.46,3.46,0,0,0-.31-1.35l-1.86-3.88c-.44-1.17-1.2-1.34-1.61-1.34a2.43,2.43,0,0,0-1.31.5,18.94,18.94,0,0,1-10.7,3.16c-4.07,0-7.27-1-9.51-3a10.81,10.81,0,0,1-3.33-7.9h28C429.93,110.71,432,110.19,432,106.7Zm-31.3-4.37a11.61,11.61,0,0,1,2.72-7.46c1.79-2,4.43-3,7.84-3s5.87,1,7.51,2.92a12.14,12.14,0,0,1,2.5,7.57Z"/><path class="cls-1" d="M364.95,82.73c-6.85,0-12.23,2.16-16,6.41s-5.62,10.44-5.62,18.48a25.88,25.88,0,0,0,3.05,13.08,19.22,19.22,0,0,0,8.23,7.83A25.7,25.7,0,0,0,366,131a31.42,31.42,0,0,0,8.82-1.13,24.22,24.22,0,0,0,7.21-3.52,2.29,2.29,0,0,0,1-1.82,3.43,3.43,0,0,0-.31-1.35l-1.86-3.88c-.44-1.17-1.2-1.34-1.61-1.34a2.43,2.43,0,0,0-1.31.5,18.94,18.94,0,0,1-10.7,3.16c-4.07,0-7.27-1-9.51-3a10.81,10.81,0,0,1-3.33-7.9h28c1.24,0,3.31-.52,3.31-4,0-7.67-1.77-13.64-5.25-17.74S371.76,82.73,364.95,82.73ZM375,102.33H354.46a11.62,11.62,0,0,1,2.72-7.46c1.79-2,4.43-3,7.84-3s5.87,1,7.51,2.92A12.14,12.14,0,0,1,375,102.33Z"/><path class="cls-1" d="M345,87.29a2.54,2.54,0,0,0,0-1.4,2.35,2.35,0,0,0-.87-1.2c-1.68-1.28-6.88-1.54-8.18-1.54-1,0-4.62.11-11.74,2.23a1.9,1.9,0,0,0-1.73-1h-5.22a2.62,2.62,0,0,0-2.3.88,4.13,4.13,0,0,0-.54,2.39v37.85a4.49,4.49,0,0,0,.9,3l.11.11a3.68,3.68,0,0,0,2.77,1h4.08a3.58,3.58,0,0,0,2.94-1.12,4.64,4.64,0,0,0,.85-3v-31a32.45,32.45,0,0,1,8.75-1.52c.4,0,.77,0,1.16.05a8.21,8.21,0,0,1,3.39.91l.76.23.17,0a1.61,1.61,0,0,0,1.59-1.37l3-5.49Z"/><path class="cls-1" d="M309.34,85.2a3.17,3.17,0,0,0-2.72-1h-8V72.57a4.56,4.56,0,0,0-.75-2.82,3.12,3.12,0,0,0-2.64-1.09h-4.87a3.11,3.11,0,0,0-2.64,1.1,4.55,4.55,0,0,0-.75,2.82v41.54c0,13.54,8.37,16.36,12.74,16.91a2.3,2.3,0,0,0,2.59-2.28v-6.19a2.3,2.3,0,0,0-1.24-2,4.32,4.32,0,0,1-1.33-1.12c-.84-1-1.12-3-1.12-5.64V94.4h8a3.28,3.28,0,0,0,2.71-.94,4.65,4.65,0,0,0,.68-2.88V88.1A4.9,4.9,0,0,0,309.34,85.2Z"/><path class="cls-1" d="M272.76,84.51a32.17,32.17,0,0,0-10.26-1.69c-7.57,0-13.46,2.16-17.5,6.43s-6.07,10.4-6.07,18.27c0,6.95,1.72,12.43,5.1,16.28s8.22,5.86,14.3,5.86a18.08,18.08,0,0,0,7.43-1.4,14.15,14.15,0,0,0,3.95-2.68c-.21,3.32-.95,5.76-2.18,7.25-1.46,1.75-3.84,2.64-7.08,2.64a26.87,26.87,0,0,1-8.56-1.39,1.59,1.59,0,0,0-2.13,1.45l-.19,6.69a1.58,1.58,0,0,0,1.19,1.59,46.07,46.07,0,0,0,10.55,1.5c6.83,0,11.93-2.24,15.17-6.65s4.79-10.35,4.79-17.87V88.29A80.77,80.77,0,0,0,272.76,84.51Zm-3,9.77v15.81a9.26,9.26,0,0,1-2.51,6.89,9,9,0,0,1-6.58,2.47c-3.45,0-6-1-7.7-3s-2.57-5.3-2.57-9.61c0-9.38,3.79-13.94,11.6-13.94a23.57,23.57,0,0,1,4.63.44A13.48,13.48,0,0,1,269.78,94.28Z"/><path class="cls-1" d="M219.52,82.82a42.58,42.58,0,0,0-12.64,1.82l-2.13.55a1.9,1.9,0,0,0-1.75-1h-5.22a2.62,2.62,0,0,0-2.3.88,4.12,4.12,0,0,0-.54,2.39v38.19a4.49,4.49,0,0,0,.9,3,3.61,3.61,0,0,0,2.89,1.1h4.08a3.58,3.58,0,0,0,2.94-1.12,4.65,4.65,0,0,0,.85-3V94.39a39.38,39.38,0,0,1,9.56-1.54c2.37,0,4.09.55,5.11,1.63s1.55,3.05,1.55,5.82v25.37a4.48,4.48,0,0,0,.9,3,3.61,3.61,0,0,0,2.89,1.1h4.16a3.48,3.48,0,0,0,2.86-1.12,4.65,4.65,0,0,0,.85-3V99.56c0-5.5-1.38-9.71-4.11-12.51A14.5,14.5,0,0,0,219.52,82.82Z"/><path class="cls-1" d="M185.5,84.19h-4.08a3.61,3.61,0,0,0-2.88,1.1,4.64,4.64,0,0,0-.9,3.09v37.27a4.49,4.49,0,0,0,.9,3,3.6,3.6,0,0,0,2.89,1.1h4.08a3.58,3.58,0,0,0,2.94-1.12,4.65,4.65,0,0,0,.84-3V88.38a4.65,4.65,0,0,0-.9-3.09A3.61,3.61,0,0,0,185.5,84.19Z"/><path class="cls-1" d="M170.95,65.05c-3.39,1.51-10.45,7.35-10.45,8.85v12c-2.62-2.13-6.36-3.21-11.13-3.21a18.28,18.28,0,0,0-10.54,3.07A19.46,19.46,0,0,0,132,94.34a31.27,31.27,0,0,0-2.34,12.45c0,16.09,7.77,24.25,23.1,24.25a33.44,33.44,0,0,0,10.7-1.74,76.36,76.36,0,0,0,8.55-3.85V66.15a1.12,1.12,0,0,0-.25-.74C171.55,65.18,171.24,64.92,170.95,65.05Zm-10.45,36v18.26A13.73,13.73,0,0,1,153,121.1c-4,0-7-1.08-8.9-3.21s-2.93-5.8-2.93-10.82c0-4.51.9-8.08,2.68-10.62s4.37-3.69,7.9-3.69a9.51,9.51,0,0,1,6.39,2.1C159.69,96.21,160.49,98.29,160.49,101Z"/><path class="cls-1" d="M110.28,82.82a42.57,42.57,0,0,0-12.64,1.82l-.25.07-1.88.48a1.88,1.88,0,0,0-1.75-1H88.53a2.62,2.62,0,0,0-2.3.88,4.11,4.11,0,0,0-.54,2.39v38.19a4.49,4.49,0,0,0,.9,3,3.6,3.6,0,0,0,2.89,1.1h4.08a3.58,3.58,0,0,0,2.94-1.12,4.65,4.65,0,0,0,.85-3V94.39a39.38,39.38,0,0,1,9.56-1.54c2.37,0,4.09.55,5.11,1.63s1.55,3,1.55,5.82v25.37a4.49,4.49,0,0,0,.9,3,3.61,3.61,0,0,0,2.89,1.1h4.16a3.48,3.48,0,0,0,2.86-1.12,4.64,4.64,0,0,0,.85-3V99.56c0-5.5-1.38-9.71-4.11-12.51A14.5,14.5,0,0,0,110.28,82.82Z"/><path class="cls-1" d="M60.41,82.73c-6.85,0-12.23,2.16-16,6.41S38.8,99.58,38.8,107.62a25.88,25.88,0,0,0,3.05,13.08,19.23,19.23,0,0,0,8.23,7.83A25.71,25.71,0,0,0,61.5,131a31.41,31.41,0,0,0,8.82-1.13,24.23,24.23,0,0,0,7.21-3.52,2.29,2.29,0,0,0,1-1.82,3.46,3.46,0,0,0-.31-1.35l-1.86-3.88c-.45-1.17-1.2-1.34-1.61-1.34a2.43,2.43,0,0,0-1.31.5,18.94,18.94,0,0,1-10.7,3.16c-4.07,0-7.27-1-9.51-3a10.8,10.8,0,0,1-3.33-7.9h28c1.24,0,3.31-.52,3.31-4C81.22,99,79.46,93.06,76,89S67.21,82.73,60.41,82.73Zm10.1,19.6H49.92a11.61,11.61,0,0,1,2.72-7.46c1.79-2,4.43-3,7.84-3s5.87,1,7.51,2.92A12.14,12.14,0,0,1,70.5,102.33Z"/><path class="cls-1" d="M34.41,119.39c-.84-1-1.12-3-1.12-5.64V70.23a4.56,4.56,0,0,0-.75-2.82,3.12,3.12,0,0,0-2.64-1.09H25a3.11,3.11,0,0,0-2.64,1.1,4.55,4.55,0,0,0-.75,2.82v43.89c0,13.54,8.37,16.36,12.74,16.91A2.3,2.3,0,0,0,37,128.74v-6.19a2.3,2.3,0,0,0-1.24-2A4.32,4.32,0,0,1,34.41,119.39Z"/></g><g id="Leaf"><path class="cls-2" d="M235,20c-3,.45-22.63,2.55-37.1,6.16-20.62,5.14-20.25,22.35-20.25,29.15v8.12s0,14.51,0,14.86.26.36.44.13A209.38,209.38,0,0,1,207.2,47s.08-.08-.06,0a94.42,94.42,0,0,0-17.72,7.62c0-1.65,0-2.73,0-2.92-.08-11.72,6.82-14.88,15-17.17,6.71-1.86,19.22-2.93,19.22-2.93s-1,7.3-2.35,22.17C220.37,64.6,212.39,67,201.26,67H195c-5,7.21-5.67,11.54-5.67,11.54H201.6c23.37,0,28.59-10.3,29.71-25.54,1.41-19.37,3.36-30.6,3.94-32.72A.22.22,0,0,0,235,20Z"/></g><path class="cls-1" d="M441,86.06a4.49,4.49,0,0,0-1.79-1.78,4.88,4.88,0,0,0-4.77,0,4.49,4.49,0,0,0-1.79,1.78,4.84,4.84,0,0,0,0,4.83,4.55,4.55,0,0,0,1.78,1.78,4.84,4.84,0,0,0,4.81,0A4.55,4.55,0,0,0,441,90.89a4.84,4.84,0,0,0,0-4.83Zm-.8,4.36a3.71,3.71,0,0,1-1.43,1.44,3.87,3.87,0,0,1-3.86,0,3.67,3.67,0,0,1-1.43-1.44,3.89,3.89,0,0,1,0-3.89,3.62,3.62,0,0,1,1.44-1.43,3.92,3.92,0,0,1,3.82,0,3.61,3.61,0,0,1,1.44,1.43,3.89,3.89,0,0,1,0,3.89Z"/><path class="cls-1" d="M438.22,89.3a2.45,2.45,0,0,0-.33-.38,1.22,1.22,0,0,0-.34-.18,1.57,1.57,0,0,0,1-.47,1.29,1.29,0,0,0,.35-.9,1.37,1.37,0,0,0-.18-.7,1.22,1.22,0,0,0-.46-.47,1.93,1.93,0,0,0-.77-.2h-2.55v4.89h1v-2h.26a1.09,1.09,0,0,1,.69.21,3.3,3.3,0,0,1,.69,1l.41.79h1.23l-.58-1Q438.28,89.38,438.22,89.3ZM437.37,88a4.86,4.86,0,0,1-1.07.07h-.4V86.77h.4a4.72,4.72,0,0,1,1.06.07.64.64,0,0,1,.33.23.6.6,0,0,1,.12.36.63.63,0,0,1-.45.61Z"/></svg>