<svg xmlns="http://www.w3.org/2000/svg" width="1527" height="312"><path fill="#036" fill-rule="evenodd" d="m497.6 227.8 28.8 27.9L507 273l-31.8-30.5q-1.6.7-3.3 1.3t-3.4 1q-1.7.5-3.4.9t-3.5.7l-3.6.6q-1.9.2-3.7.3-1.9.2-3.7.3-1.9.1-3.7.1-31.2 0-50.6-20.9-19.5-20.9-19.5-52.6V143q0-31.6 19.5-52.6 19.4-20.9 50.5-20.9 31.8 0 51.7 20.9 20 21 20 52.6v31.2q.1 3.8-.3 7.6-.3 3.8-1 7.6-.7 3.7-1.7 7.4-1.1 3.7-2.4 7.2-1.3 3.3-3 6.5-1.6 3.2-3.5 6.2-2 3-4.2 5.8-2.3 2.8-4.8 5.3m-7.9-85q0-21.7-11.6-35.6t-31.3-13.9q-19 0-30.1 13.9t-11.1 35.6v31.4q0 21.8 11.1 35.8 11 14 30.2 14 19.9 0 31.4-13.9 11.4-14 11.4-35.9zm140.6 102.3-2.3-18.8q-1.4 2.4-3.1 4.7-1.7 2.2-3.6 4.2-2 2-4.1 3.7-2.2 1.8-4.6 3.2t-5 2.5-5.3 1.8-5.5 1-5.6.3q-20.7 0-32.4-13.2-11.6-13.2-11.6-41.1v-76.9h28.7v77.1q0 16.9 5.5 23.7t16.6 6.8q2.2.1 4.5-.1 2.2-.2 4.5-.7 2.2-.5 4.3-1.2 2.2-.8 4.2-1.8 1.8-.9 3.4-2 1.5-1.2 3-2.6 1.4-1.4 2.6-3 1.2-1.5 2.1-3.3v-92.9h28.9v128.6zm55.8-128.6H715v128.6h-28.9zm140.1 128.6v-80.6q0-14.5-6-20.6-5.9-6.1-18.2-6.1-2 0-4 .2-1.9.2-3.8.7-1.9.4-3.8 1.2-1.8.7-3.5 1.6-1.7 1-3.2 2.1-1.6 1.1-2.9 2.4-1.4 1.3-2.6 2.8-1.3 1.4-2.3 3v93.3h-29V116.5h26.5l1.6 18.6q1.5-2.4 3.3-4.6 1.7-2.2 3.7-4.1 2-2 4.3-3.6 2.2-1.7 4.6-3.1 2.5-1.4 5.1-2.5t5.3-1.8q2.8-.7 5.6-1t5.6-.3q20.1 0 31.4 12.2 11.2 12.2 11.2 38v80.8zm182.6-122.5H981q.2-3.1-.4-6-.5-3-1.7-5.8-1.1-2.8-2.8-5.3-1.8-2.4-4-4.5-9-8.3-25.8-8.3-15.8 0-24.3 6.9-2.1 1.6-3.7 3.6t-2.7 4.3q-1.1 2.4-1.6 4.9-.6 2.5-.5 5.1 0 9.8 9.2 16.3t30.5 12.3q28 7.5 42.5 20.7 14.5 13.3 14.5 33.7c.1 3.3-.2 6.7-.9 9.9-.8 3.3-1.9 6.5-3.4 9.5s-3.4 5.7-5.6 8.3c-2.2 2.5-4.7 4.8-7.4 6.7q-17.3 12.8-45.5 12.8-27.1 0-47.6-14.5-20.4-14.4-19.8-39.4l.2-.7H908q0 15.8 11 23.6 10.9 7.8 28.4 7.8 16.1 0 25-6.5 2.1-1.4 3.8-3.3 1.7-2 2.9-4.3 1.2-2.2 1.7-4.8.6-2.5.5-5 .1-2.5-.4-5t-1.6-4.8q-1-2.3-2.6-4.3-1.5-2-3.4-3.6-8.1-6.8-28.4-12.3-29-7.6-44.7-20.1c-2.5-1.9-4.8-4.1-6.8-6.6-2-2.4-3.7-5.1-5-8-1.4-2.8-2.4-5.8-3.1-8.9s-.9-6.3-.9-9.4q0-20.9 17.3-34.5t44.7-13.5q28.6 0 45.9 15.3 17.3 15.4 16.8 36.9l-.3.7zm63 86.4q0 8 3.4 11.4 1 .9 2 1.5 1.1.7 2.3 1.1 1.2.5 2.4.7 1.3.2 2.5.1h1.2q.6-.1 1.1-.1.6-.1 1.2-.1.6-.1 1.1-.2.6-.1 1.1-.2.6-.2 1.1-.3t1.1-.3l1-.4 3.1 21.2q-1 .6-2.1 1-1.1.5-2.2.9t-2.2.7-2.3.6q-1.3.2-2.6.5-1.3.2-2.6.3-1.4.2-2.7.2-1.3.1-2.7.1-15.9 0-25-9.3-9-9.4-9-29.4v-71h-19.6v-21.4h19.6V85.4h28.8v31.2h23.1V138h-23.1zm112.2-66.3-12.4-.5q-1.9-.1-3.7.1t-3.6.7q-1.8.4-3.5 1.1t-3.3 1.7q-1.4.9-2.7 2t-2.4 2.4-2 2.7q-1 1.4-1.7 3v89.3h-28.9V116.6h26.4l1.9 18.7q1.1-2.3 2.5-4.5 1.3-2.1 2.9-4 1.6-2 3.4-3.8 1.8-1.7 3.8-3.2 1.9-1.4 4-2.5 2.1-1 4.4-1.7 2.2-.8 4.6-1.1 2.3-.3 4.7-.3h1.2q.6 0 1.2.1t1.2.1q.6.1 1.3.2l1 .2q.5.1 1 .3.6.1 1.1.2.5.2 1 .3zm45.2 46.6-.2.6q.7 15.3 8.9 25t22.9 9.7q2.5.1 5.1-.1 2.5-.1 5-.5 2.5-.3 5-.9t4.9-1.3q2.1-.8 4.2-1.7t4.1-1.9 4-2.2q1.9-1.1 3.7-2.4l9.3 18.9q-2.1 1.8-4.4 3.4t-4.7 2.9q-2.5 1.4-5 2.6-2.6 1.1-5.2 2-3.3 1.1-6.8 2-3.4.9-6.9 1.4-3.5.6-7.1.9-3.5.2-7 .1-27.4 0-43.7-17.8-16.2-17.8-16.2-45.9v-4.8q0-28 16.1-46.5c2.5-3 5.3-5.6 8.3-8 3-2.3 6.3-4.3 9.8-5.8 3.5-1.6 7.2-2.8 10.9-3.6 3.8-.8 7.6-1.1 11.4-1q26.1 0 40 15.7 13.8 15.8 14 42.2v17zm51.6-24.2c0-8.1-2.1-14.8-6.2-19.9-4.2-5.1-10.4-7.8-18.9-7.8q-2.5 0-5 .5-2.5.6-4.8 1.7t-4.3 2.7q-1.9 1.6-3.5 3.6-1.8 2.4-3.3 4.9-1.4 2.6-2.5 5.3-1.1 2.8-1.8 5.6-.7 2.9-1 5.8l.3.6h51zm79.6 24.1-.3.6q.8 15.3 9 25 8.3 9.7 22.9 9.7 2.6.1 5.1-.1 2.5-.1 5.1-.5 2.5-.3 4.9-.9 2.5-.6 4.9-1.3 2.2-.8 4.3-1.7 2-.8 4-1.9 2.1-1 4-2.2 1.9-1.1 3.8-2.4l9.3 18.9q-2.1 1.8-4.4 3.3-2.3 1.6-4.8 3-2.4 1.4-4.9 2.5-2.6 1.1-5.2 2-3.4 1.2-6.8 2.1-3.4.8-6.9 1.4t-7.1.8q-3.5.3-7.1.2-27.3 0-43.6-17.8-16.2-17.9-16.2-46.1v-4.7q0-28.1 16.1-46.6c2.5-2.9 5.2-5.6 8.3-7.9 3-2.3 6.3-4.3 9.8-5.9s7.1-2.7 10.9-3.5c3.7-.8 7.5-1.1 11.4-1q26 0 39.9 15.7 13.8 15.8 13.9 42.3v17zM1412 165c0-8.1-2.1-14.8-6.3-19.9-4.1-5.1-10.4-7.8-18.8-7.8q-2.6 0-5 .5-2.5.6-4.8 1.7t-4.3 2.7-3.5 3.6q-1.8 2.4-3.3 4.9-1.4 2.6-2.5 5.3-1.1 2.8-1.8 5.6-.7 2.9-1 5.8l.2.6h51.1zm90.2 44q0 8 3.4 11.4.9.8 2 1.5 1.1.6 2.2 1.1 1.2.4 2.5.6 1.2.2 2.5.1h1.1q.6 0 1.2-.1.6 0 1.2-.1.5-.1 1.1-.2t1.1-.2 1.1-.3q.5-.1 1-.3.6-.1 1.1-.3l3.1 21.2q-1.1.5-2.1 1l-2.2.8-2.2.8q-1.2.3-2.3.5-1.3.3-2.6.5-1.4.2-2.7.4l-2.6.2h-2.7q-16 0-25-9.3t-9-29.3v-71.2h-19.7v-21.4h19.6V85.2h28.8v31.2h23.1v21.4h-23.1v71.1z"/><path fill="#f40" fill-rule="evenodd" d="M699.8 30.9c13.9 0 26.3 8.3 31.6 21.1 5.3 12.7 2.4 27.4-7.4 37.2s-24.5 12.7-37.2 7.4C674 91.3 665.6 78.9 665.6 65c0-4.4.9-8.9 2.6-13q2.7-6.3 7.5-11.1c3.1-3.2 6.9-5.7 11.1-7.4 4.1-1.7 8.5-2.6 13-2.6"/><path fill="#f40" d="M156 311.9C69.8 311.9 0 242.2 0 156 0 69.7 69.8 0 156 0c86.3 0 156.1 69.7 156.1 156 0 86.2-69.8 155.9-156.1 155.9"/><g fill="#fff"><path d="M154.1 23.9h3.9v260.4h-3.9z"/><path fill-rule="evenodd" d="M125.6 155.4q.1 3.5-.2 6.9-.3 3.5-.9 6.9t-1.6 6.7q-.9 3.3-2.3 6.5-1 2.7-2.5 5.2-1.4 2.5-3.2 4.8-1.7 2.3-3.7 4.4-2.1 2-4.4 3.8l18.9 14.7-12.4 11.1L90 207.9q-1.3.3-2.5.5-1.2.1-2.4.3-1.3.1-2.5.1-1.3.1-2.5.1-3.1 0-6.2-.4t-6.1-1.2-5.8-2.1q-2.9-1.2-5.5-2.8-2.7-1.7-5-3.7-2.4-2.1-4.5-4.4-2-2.4-3.7-5t-3-5.5q-1.5-3.3-2.6-6.7t-1.8-6.9q-.8-3.5-1.1-7.1-.3-3.5-.3-7.1v-6.2q0-3.6.3-7.2.3-3.7 1-7.2.7-3.6 1.8-7.1t2.6-6.8q1.3-2.9 2.9-5.5 1.7-2.7 3.7-5.1 2.1-2.3 4.5-4.4 2.3-2.1 5-3.8 2.6-1.6 5.5-2.8 2.8-1.3 5.8-2.1t6.1-1.2 6.2-.4q3.2 0 6.3.3 3.1.4 6.2 1.2 3 .9 5.9 2.1t5.6 2.9q2.6 1.6 4.9 3.7 2.4 2 4.4 4.3 2.1 2.4 3.7 5 1.7 2.7 3 5.5 1.4 3.3 2.5 6.8 1.1 3.4 1.9 7 .7 3.5 1 7.1t.3 7.2zm-19.1-5.7q0-18.5-7-28.1-6.9-9.6-19.6-9.5-2.8-.1-5.5.5-2.8.6-5.3 1.8-2.5 1.3-4.7 3.2-2.1 1.8-3.7 4.1-7 9.7-7.1 27.3v6.4q0 17.9 6.9 27.8 1.6 2.4 3.8 4.3 2.1 2 4.7 3.3t5.4 1.9 5.7.5q12.7 0 19.5-9.6 6.9-9.7 6.9-28.2z"/><path d="M248.2 184.1q.1-1.6-.2-3.2-.3-1.5-1-3-.6-1.4-1.6-2.7t-2.3-2.2q-5.1-3.9-18.3-7.9-2.8-.8-5.5-1.7-2.7-1-5.3-2.1-2.7-1.1-5.2-2.4-2.6-1.3-5.1-2.8-15-9.4-15-24.5 0-3.2.7-6.3t2.1-5.9q1.4-2.9 3.4-5.3 2.1-2.4 4.6-4.3 10.8-8.6 28.1-8.6 2.6 0 5.2.2 2.6.3 5.2.8 2.6.6 5 1.4 2.5.8 4.9 1.9 2.2 1 4.1 2.2 2 1.3 3.8 2.8t3.4 3.3q1.5 1.7 2.8 3.7 1.3 1.9 2.2 4 1 2.1 1.7 4.3.6 2.2.9 4.4.4 2.3.3 4.6h-18.9q0-8.5-5.4-13.4-5.4-4.8-15.4-4.8-9.3 0-14.5 4-1.2.9-2.2 2.2-1.1 1.2-1.7 2.7-.7 1.4-1 3t-.2 3.1q0 1.6.3 3 .4 1.5 1.2 2.8.7 1.3 1.7 2.4 1.1 1.1 2.3 1.9 5.6 4 18.4 7.7 2.7.8 5.4 1.7 2.6.9 5.2 2t5.1 2.3q2.5 1.3 4.9 2.7 1.7 1 3.3 2.2 1.6 1.3 3 2.7 1.5 1.4 2.7 2.9 1.3 1.6 2.3 3.3t1.7 3.5 1.1 3.7q.5 1.8.7 3.7t.2 3.9q.1 3.1-.6 6.2-.6 3.1-2 6-1.4 2.8-3.4 5.2-2 2.5-4.5 4.4-10.6 8-28.6 8.1-2.8 0-5.6-.3t-5.5-.8q-2.8-.6-5.5-1.4-2.7-.9-5.2-2-2.3-1-4.5-2.2-2.2-1.3-4.1-2.8-2-1.6-3.7-3.4-1.8-1.7-3.3-3.8-1.4-1.9-2.4-4.1-1.1-2.1-1.8-4.4t-1-4.7-.3-4.8h19.1q0 9.3 6.1 14.4 6.2 5.2 17.7 5.1 10 0 15-4 1.2-.9 2.2-2.1.9-1.2 1.6-2.6.6-1.4.9-2.9.4-1.5.3-3"/></g></svg>